<svg width="51.04" height="49.47" xmlns="http://www.w3.org/2000/svg" xmlns:svg="http://www.w3.org/2000/svg" xmlns:xlink="http://www.w3.org/1999/xlink">
 <defs>
  <style>.cls-1{fill:none;}.cls-2{fill:#fff;}</style>
  <symbol height="752pt" id="svg_3" version="1.1" viewBox="0 0 752 752" width="752pt" xmlns="http://www.w3.org/2000/svg">
   <path d="m374.38,162.89c-3.2,0.38 -6.18,1.84 -8.44,4.14l-56.83,56.83c-2.93,2.61 -4.66,6.31 -4.78,10.23c-0.11,3.93 1.41,7.73 4.2,10.49c2.78,2.77 6.59,4.25 10.51,4.11c3.93,-0.13 7.62,-1.89 10.2,-4.85l32.56,-32.56l0,107.89c-0.11,7.51 6.7,14.51 14.21,14.51c7.5,0 14.31,-7 14.2,-14.51l0,-107.89l32.56,32.56c2.59,2.96 6.27,4.72 10.2,4.85c3.92,0.14 7.73,-1.34 10.52,-4.11c2.78,-2.77 4.3,-6.56 4.19,-10.49c-0.11,-3.92 -1.84,-7.62 -4.78,-10.23l-56.83,-56.83c-3.06,-3.1 -7.36,-4.62 -11.69,-4.14zm-142.07,141.93c-3.22,0.43 -6.2,1.94 -8.44,4.29l-56.83,56.83c-5.47,5.54 -5.47,14.45 0,19.98l56.83,56.83c2.58,2.96 6.28,4.71 10.2,4.85c3.92,0.15 7.73,-1.35 10.52,-4.11c2.78,-2.77 4.3,-6.56 4.19,-10.49s-1.84,-7.63 -4.78,-10.23l-32.56,-32.56l107.74,0c7.51,0.11 14.36,-6.7 14.36,-14.21c0,-7.5 -6.85,-14.31 -14.36,-14.2l-107.74,0l32.56,-32.71c4.37,-4.26 5.53,-10.84 2.88,-16.34c-2.65,-5.5 -8.52,-8.69 -14.57,-7.93zm284.15,0c-5.46,0.59 -10.1,4.27 -11.91,9.46c-1.8,5.2 -0.45,10.96 3.47,14.81l32.56,32.71l-107.74,0c-0.49,-0.03 -0.99,-0.03 -1.48,0c-7.44,0.38 -13.85,7.5 -13.47,14.95c0.39,7.43 7.51,13.85 14.95,13.46l107.74,0l-32.56,32.56c-2.94,2.61 -4.67,6.31 -4.77,10.23c-0.12,3.93 1.4,7.72 4.19,10.49c2.78,2.76 6.59,4.26 10.51,4.12c3.93,-0.15 7.62,-1.9 10.2,-4.86l56.83,-56.83c5.47,-5.53 5.47,-14.44 0,-19.98l-56.83,-56.83c-3.03,-3.15 -7.34,-4.73 -11.69,-4.29zm-140.6,113.51c-7.49,0.07 -14.21,7.02 -14.06,14.5l0,107.74l-32.56,-32.56c-3.03,-3.15 -7.34,-4.73 -11.69,-4.29c-5.46,0.59 -10.1,4.28 -11.91,9.47c-1.8,5.19 -0.45,10.95 3.48,14.81l56.83,56.82c2.66,2.68 6.28,4.18 10.06,4.18c3.78,0 7.4,-1.5 10.06,-4.18l56.83,-56.82c2.94,-2.61 4.67,-6.31 4.78,-10.24c0.11,-3.92 -1.41,-7.72 -4.19,-10.48c-2.79,-2.77 -6.6,-4.26 -10.52,-4.12c-3.92,0.14 -7.61,1.9 -10.2,4.86l-32.56,32.56l0,-107.74c0.16,-7.59 -6.76,-14.59 -14.35,-14.51z"/>
  </symbol>
 </defs>
 <g class="layer">
  <title>Layer 1</title>
  <use fill="#ffffff" id="svg_4" transform="matrix(1, 0, 0, 1, 0, 0) matrix(0.086381, 0, 0, 0.086381, 0.0515182, 0.00657111)" x="-203.88" xlink:href="#svg_3" y="-213.25"/>
  <g data-name="Calque 2" id="Calque_2">
   <g data-name="Calque 1" id="Calque_1-2">
    <polyline class="cls-1" id="svg_1" points="6.787346235083987,0 50.94498883464166,0 50.94498883464166,49.37791046426173 0,49.37791046426173 0,0 6.787346235083987,0 "/>
    <path class="cls-2" d="m22.37,37.67a5.07,5.07 0 0 0 -1.28,-2.9c-1.98,-2.08 -4.71,-5.01 -5.28,-5.84c-0.91,-1.33 -2.23,-3.44 0.2,-2.62c1.59,0.54 4.94,3.75 5.34,2.94c0.71,-1.31 -2.02,-8.84 -2.54,-10.35c-0.58,-1.7 -0.13,-2.42 -0.13,-2.42s0.98,-0.71 1.93,1.21c1.47,2.93 3.14,6.58 3.14,6.58s0.29,-8.47 0.36,-9.61s0.04,-1.94 1.14,-1.94s1.08,0.87 1.08,2.33s0.82,9.74 0.82,9.74l1.93,-8.9s0.45,-1.32 1.41,-1.14s0.79,1.57 0.79,1.57l-1.19,9.33l2.89,-5.05s0.83,-1.21 1.5,-0.85s0,1.92 0,1.92s-2.7,6.05 -2.61,6.82s0,2.03 0.17,3.9c0.17,1.99 -1.27,3.86 -1.47,5.37c0,0 -0.67,0.71 -2.82,0.66a33.62,33.62 0 0 1 -5.37,-0.77z" id="svg_2" stroke="#000000" stroke-width="0.5" transform="rotate(-38.0493, 24.6957, 25.5813)"/>
   </g>
  </g>
 </g>
</svg>