<?xml version="1.0"?>
<svg width="162.86" height="50" xmlns="http://www.w3.org/2000/svg" xmlns:svg="http://www.w3.org/2000/svg" data-name="Layer 1">
 <defs>
  <style>.cls-1,.cls-6{fill:#2e3677;}.cls-1{stroke:#2d3677;}.cls-1,.cls-2,.cls-3,.cls-4{stroke-miterlimit:10;}.cls-1,.cls-3,.cls-4{stroke-width:0.52px;}.cls-2,.cls-8{fill:#3a667c;}.cls-2{stroke:#3a667c;stroke-width:0.13px;}.cls-3,.cls-5{fill:#6e396d;}.cls-3{stroke:#6f396d;}.cls-4,.cls-7{fill:#8088bf;}.cls-4{stroke:#8088bf;}</style>
 </defs>
 <g class="layer">
  <title>Layer 1</title>
  <path class="cls-1" d="m608.58,205.94a3.74,3.74 0 0 1 0.63,-0.45a10.65,10.65 0 0 1 2.36,-1.47a16.47,16.47 0 0 1 4.2,-1.06c0.74,0.19 1.52,0 2.1,0.22a8.19,8.19 0 0 0 0.79,0.55c0.21,0.45 0.42,0.58 0.47,0.77a4.59,4.59 0 0 1 0.1,1.09a4.76,4.76 0 0 1 -0.52,1.57a4.28,4.28 0 0 1 -0.47,0.77c-0.42,0.36 -0.63,0.65 -0.84,0.81c-0.47,0.29 -0.79,0.48 -1.1,0.64a9.54,9.54 0 0 1 -1.94,0.58a3.18,3.18 0 0 1 -1,0.29a14,14 0 0 1 -2.1,0.61c-0.37,0.09 -0.89,0.32 -1.36,0.45s-1,0.12 -1.42,0.22c0.31,0.45 0,1.12 0.47,1.57a12.49,12.49 0 0 0 2.94,0.13c0.37,0 0.79,-0.19 1.21,-0.22a9.07,9.07 0 0 0 2,-0.42a17,17 0 0 0 5.25,-2a9.74,9.74 0 0 0 2.52,-1.51a4.94,4.94 0 0 1 2.46,-1c0.58,0 1.32,0.48 0.74,0.93a20.64,20.64 0 0 1 -2.26,1.1a22.21,22.21 0 0 0 -2.31,1.44c-0.26,0.16 -0.84,0.45 -1.1,0.64a12.31,12.31 0 0 1 -1.52,0.68c-0.42,-0.07 -0.58,0.16 -0.89,0.32s-0.42,0.16 -0.63,0.26c-0.58,0.28 -1.26,0.57 -1.89,0.8c-1.36,0.51 -2.78,0.8 -4.09,1.32l-1,0.09a2.89,2.89 0 0 1 -1.21,0a6.38,6.38 0 0 1 -2.73,-1a9.44,9.44 0 0 1 -1.26,-0.71a6.07,6.07 0 0 1 -1,-2.57a6.84,6.84 0 0 0 0.74,-2.22a6.67,6.67 0 0 0 1.26,-1.6c0.2,-0.08 2.04,-1.56 2.4,-1.62zm4.25,0.61a5.72,5.72 0 0 1 -1.57,1.16a2.32,2.32 0 0 1 -1,0.71c-0.36,0.41 -1.41,0.73 -1,1.38a6.72,6.72 0 0 0 2.1,-0.39c0.58,-0.19 1.21,-0.35 1.68,-0.54s0.89,-0.55 1.31,-0.81a8.26,8.26 0 0 0 1.21,-0.9c0.1,-0.38 0.68,-0.86 0.63,-1.28c0,-0.23 -0.32,-0.39 -0.37,-0.61a5.3,5.3 0 0 0 -1.41,0.29a10.59,10.59 0 0 1 -1.58,0.99z" id="svg_1" transform="translate(-594.02 -188.93)"/>
  <path class="cls-2" d="m619.06,194.65a0.63,0.63 0 0 1 0.13,0.54c0,0.21 -0.46,0.47 -0.63,0.64c-0.47,0.26 -0.55,0.46 -0.81,0.55a5.71,5.71 0 0 1 -2.33,0.17a5.73,5.73 0 0 0 -1.44,0.15c-0.21,0 -0.29,0.08 -0.55,0.11s-0.55,0 -0.72,0.15c-0.21,0 -0.17,0 -0.46,0a1.67,1.67 0 0 0 -0.68,0.15a2.11,2.11 0 0 0 -0.72,0.06a3.45,3.45 0 0 0 -1,0.2c-0.05,0.11 -0.22,0.2 -0.17,0.32c-0.34,0.26 -0.51,0.63 -0.85,0.86a2.17,2.17 0 0 1 -0.59,0.58c-0.13,0.29 -0.43,0.46 -0.64,0.7c-0.46,0.57 -0.89,1.61 -1.39,2.16a9.83,9.83 0 0 1 -0.94,1.22a21.46,21.46 0 0 1 -2,3.46c-0.21,0.35 -0.34,0.38 -0.34,0.5a3.52,3.52 0 0 0 -0.55,0.75c-0.34,0.46 -0.46,0.72 -0.59,0.89s-0.13,0.29 -0.21,0.38a1.76,1.76 0 0 0 -0.3,0.58c-0.38,0.52 -0.46,0.86 -0.72,1.12a0.94,0.94 0 0 1 -0.21,0.5c0.09,0.28 -0.29,0.69 -0.51,1c-0.34,0.52 -0.59,0.72 -0.72,1a6.91,6.91 0 0 1 -0.59,0.72a7.75,7.75 0 0 1 -0.85,1.13a2,2 0 0 1 0,0.49a1.29,1.29 0 0 1 -0.59,0.49c-0.42,0 -0.68,0.06 -0.89,0.06a2.24,2.24 0 0 1 -0.8,-0.37c-0.51,-0.44 -1.19,-0.76 -1.23,-1.25c0,-0.26 0.08,-0.57 0.55,-0.66c0.51,-0.78 0.8,-1.39 1.18,-2a3.33,3.33 0 0 0 0.3,-0.46a4,4 0 0 0 0.25,-0.46c0.17,-0.29 0.43,-0.55 0.64,-0.84a12.33,12.33 0 0 1 1.31,-1.65c0.13,-0.23 0.3,-0.37 0.43,-0.6s0,-0.38 0,-0.55s0.42,-0.38 0.42,-0.61a9,9 0 0 0 0.8,-0.84c0.21,-0.29 0.3,-0.46 0.43,-0.63a1,1 0 0 0 0.21,-0.29a2.72,2.72 0 0 1 0.59,-0.78a2.5,2.5 0 0 1 0.68,-0.84a11.7,11.7 0 0 1 0.89,-1.36c0.25,-0.4 0.5,-1.18 0.8,-1.56c0.68,-0.89 1.27,-1.76 1.95,-2.63a21.25,21.25 0 0 1 -2.41,0c-0.3,0 -0.26,0.09 -0.6,0.06s-0.42,-0.06 -0.67,-0.06a8.61,8.61 0 0 0 -1.66,0.23c-0.67,0.09 -0.63,0.26 -1.18,0.35c-0.3,0.06 -0.59,0 -0.85,0.12a2.13,2.13 0 0 1 -1.39,-0.81c-0.13,-0.15 -0.43,0 -0.47,-0.21a0.9,0.9 0 0 1 0,-0.46c0.59,-0.34 1,-0.34 1.27,-0.52c0.93,-0.11 1.31,-0.23 2.29,-0.37c0.42,-0.15 0.42,-0.12 0.5,-0.12c0.55,-0.09 1.36,-0.2 2.08,-0.29a12.36,12.36 0 0 1 2,-0.06a22.5,22.5 0 0 0 2.92,-0.17c0.29,-0.06 0.55,-0.09 0.72,-0.11c0.33,0 0.63,0 0.8,-0.15c2.12,-0.29 3.3,-0.43 5.46,-0.69a16.92,16.92 0 0 1 2.24,-0.12c0.34,0 0.68,0 1.1,0.06a3.31,3.31 0 0 0 1.19,0.06l0.12,0.01z" id="svg_2" transform="translate(-594.02 -188.93)"/>
  <path class="cls-3" d="m638.5,208.1c-0.41,0.3 -0.46,0.5 -0.73,0.55c-0.73,0.7 -1.82,1.23 -2.64,1.9c-0.27,0.16 -0.54,0.36 -0.81,0.55c-0.64,0.28 -1.14,0.64 -1.73,1c-0.27,0.14 -0.55,0.25 -0.82,0.41a9.06,9.06 0 0 1 -0.82,0.42c-0.36,0.25 -0.72,0.53 -1,0.78c-0.68,0.2 -1.14,0.5 -1.82,0.67a4.42,4.42 0 0 1 -1,0.47a3,3 0 0 1 -1.41,-0.08a2.23,2.23 0 0 0 -0.59,-0.14a4,4 0 0 1 -1,-1.67a3.19,3.19 0 0 1 -0.23,-0.61a2.41,2.41 0 0 0 -0.18,-0.48a2.94,2.94 0 0 1 -0.32,-0.61a2.78,2.78 0 0 1 0,-1.22a11.23,11.23 0 0 1 1.82,-3.28a5.45,5.45 0 0 1 0.54,-1a1.82,1.82 0 0 0 0.5,-0.92a9.16,9.16 0 0 0 0.64,-1a7.7,7.7 0 0 1 0.54,-1c0.46,-0.75 0.87,-1.44 1.32,-2.11a2,2 0 0 1 0.46,-0.64a1.41,1.41 0 0 1 0.5,-0.53c0,-0.19 0.27,-0.25 0.36,-0.39c0.27,-0.27 0.41,-0.61 0.68,-0.86l0.55,-0.42a1.39,1.39 0 0 1 0.45,-0.41c0.59,-0.64 1.46,-1.28 2.23,-2a15.16,15.16 0 0 1 2.01,-1.48a2.13,2.13 0 0 1 1,-0.47a2.67,2.67 0 0 1 0.86,0.06a1.7,1.7 0 0 1 0.46,0.61a9.4,9.4 0 0 1 -0.5,3.17c0,0.17 0,0.36 0,0.53s-0.31,0.61 -0.41,0.89c0,0.53 -0.54,0.86 -0.63,1.28c-0.18,0.08 -0.14,0.27 -0.32,0.36c-0.09,0.39 -0.45,0.69 -0.64,1c-0.86,0.75 -1.81,1.44 -2.63,2.19c-1.05,1 -2.23,1.79 -3.23,2.73c-0.77,0.39 -1.23,0.95 -2,1.34c-0.27,0.75 -0.59,1.61 -0.86,2.47a6,6 0 0 1 -0.32,0.75c-0.14,0.28 0.05,0.64 -0.18,0.92c0.14,0.2 0.09,0.45 0.27,0.61a0.91,0.91 0 0 0 0.55,0.25a2.67,2.67 0 0 1 0.5,-0.11a3.82,3.82 0 0 0 0.81,-0.44a2.64,2.64 0 0 0 0.6,-0.25a1.51,1.51 0 0 0 0.45,-0.17c0.73,-0.53 1.64,-0.7 2.14,-1.11l0.77,-0.31c0.36,-0.11 0.59,-0.33 1,-0.44c0.09,-0.12 0.23,-0.17 0.32,-0.28c0.72,-0.28 1.41,-0.59 2.13,-0.86c0.14,-0.2 0.46,-0.28 0.64,-0.39s0.27,-0.28 0.54,-0.31c0,-0.17 0.32,-0.22 0.46,-0.36c0.44,0.1 0.72,0.34 0.72,0.44zm-3.23,-10.54c-0.55,0.05 -0.68,0.36 -0.86,0.69s-0.41,0.36 -0.37,0.64a63.12,63.12 0 0 0 -4.77,6c1.18,-0.72 2.18,-1.86 3.27,-2.61c0.87,-1.23 2,-2.2 2.55,-3.54c-0.23,-0.41 0.27,-0.72 0.23,-1.16l-0.05,-0.02z" id="svg_3" transform="translate(-594.02 -188.93)"/>
  <path class="cls-4" d="m639.05,206a3,3 0 0 1 0.63,-0.45a9.9,9.9 0 0 1 2.32,-1.55c1.36,-0.35 2.57,-1 4.2,-1.06c0.73,0.19 1.52,0 2.09,0.22c0.32,0.33 0.69,0.42 0.79,0.55c0.21,0.45 0.42,0.58 0.47,0.77a4.83,4.83 0 0 1 0.11,1.09a4.91,4.91 0 0 1 -0.53,1.58a4.41,4.41 0 0 1 -0.47,0.77c-0.42,0.35 -0.63,0.64 -0.84,0.8c-0.47,0.29 -0.78,0.48 -1.1,0.64a9,9 0 0 1 -1.94,0.58a2.93,2.93 0 0 1 -1,0.29a12.59,12.59 0 0 1 -2.1,0.61c-0.36,0.1 -0.89,0.32 -1.36,0.45s-1.05,0.13 -1.42,0.22c0.32,0.45 0.06,1.13 0.47,1.58a13,13 0 0 0 2.94,0.13c0.37,0 0.79,-0.2 1.21,-0.23a9.28,9.28 0 0 0 2.05,-0.42a16.8,16.8 0 0 0 5.24,-2a9.47,9.47 0 0 0 2.52,-1.51a4.84,4.84 0 0 1 2.47,-1c0.57,0 1.31,0.48 0.73,0.93a21.36,21.36 0 0 1 -2.25,1.09a22.87,22.87 0 0 0 -2.31,1.44c-0.27,0.16 -0.84,0.45 -1.1,0.65a12.41,12.41 0 0 1 -1.53,0.67c-0.42,-0.06 -0.57,0.16 -0.89,0.32s-0.42,0.16 -0.63,0.26a16,16 0 0 1 -1.89,0.8c-1.36,0.52 -2.78,0.8 -4.09,1.32l-1,0.09a2.89,2.89 0 0 1 -1.21,0a6.34,6.34 0 0 1 -2.72,-1a8.85,8.85 0 0 1 -1.26,-0.71a6,6 0 0 1 -1,-2.57a7.09,7.09 0 0 0 0.73,-2.21a6.92,6.92 0 0 0 1.26,-1.61c0.2,-0.04 2.04,-1.53 2.41,-1.53zm4.25,0.61a5.74,5.74 0 0 1 -1.58,1.15a2.21,2.21 0 0 1 -1,0.71c-0.37,0.42 -1.42,0.74 -1.05,1.38a6.83,6.83 0 0 0 2.1,-0.39c0.57,-0.19 1.2,-0.35 1.67,-0.54s0.9,-0.55 1.32,-0.8a9.63,9.63 0 0 0 1.2,-0.9c0.11,-0.39 0.69,-0.87 0.63,-1.29c-0.05,-0.22 -0.31,-0.38 -0.36,-0.61a5.38,5.38 0 0 0 -1.42,0.29a10.52,10.52 0 0 1 -1.51,0.95l0,0.05z" id="svg_4" transform="translate(-594.02 -188.93)"/>
  <path class="cls-5" d="m668.6,196l8.32,19.83s0.92,1.32 -0.1,2a0.94,0.94 0 0 1 -1.49,-0.36l-1.63,-3.81s-6,-16.73 -7.62,-19.83s-0.45,-4.36 -0.45,-4.36a70.44,70.44 0 0 1 2.97,6.53z" id="svg_5" transform="translate(-594.02 -188.93)"/>
  <path class="cls-6" d="m653.29,215.87s25.83,-10.56 30.42,-12.48a19.07,19.07 0 0 1 7.54,-1.75s-35,15.73 -37.24,16.63a2.27,2.27 0 0 1 -3.07,-1.22l2.35,-1.18z" id="svg_6" transform="translate(-594.02 -188.93)"/>
  <path class="cls-7" d="m665.21,193.87l-1.07,2.13s-2.81,5.75 -2.76,6s-3,6 -3,6l-0.55,0.93s-1.81,3.05 -3.74,6.2c-0.73,3.13 -1.24,3.42 -2.64,2.5a1.33,1.33 0 0 1 -0.55,-0.68a1.45,1.45 0 0 1 -0.17,-0.18c0,-0.05 0.07,-0.1 0.1,-0.16a3.05,3.05 0 0 1 0.65,-1.74l2.67,-4.36c4.14,-8 10.18,-20.34 10.18,-20.34s0.58,-2.37 1.26,-0.81s-0.38,4.51 -0.38,4.51z" id="svg_7" transform="translate(-594.02 -188.93)"/>
  <path class="cls-7" d="m695.46,209.46a40.14,40.14 0 0 1 -0.14,-5.05s-0.25,-1.7 -2.74,-2.46a6.17,6.17 0 0 0 -2,-0.31s-3.13,-0.39 -5.74,3.85s-1.53,7.86 1,9.79s6.9,-0.74 7.92,-2s1.95,-2.55 1.7,-3.82zm-3.23,3c-1.35,1.34 -5,3 -6.73,0.09a4.65,4.65 0 0 1 0,-5.15a9.31,9.31 0 0 1 1.67,-2.21a10,10 0 0 1 3.07,-1.84s3.06,-1.06 3.84,2.65s-0.49,5.17 -1.85,6.5l0,-0.04z" id="svg_8" transform="translate(-594.02 -188.93)"/>
  <path class="cls-8" d="m705.9,203.3c-0.15,-0.46 -0.72,-0.88 -1.7,0.14s-4.46,5.46 -4.46,5.46s-1.25,2.24 -1.86,0.17s-1.44,-5 -2,-5c0,0 -1.06,0.71 -0.47,3.26s1.14,4.31 1.14,4.31s0.71,0.5 -0.92,2.3a65.13,65.13 0 0 0 -5.42,7.82a51.41,51.41 0 0 0 -3.85,8.8a8.67,8.67 0 0 0 0.46,5.57c0.71,1.48 1.69,3.42 4.84,2.59s5.3,-4.93 5.3,-4.93s2.1,-4.94 2.14,-6.68a52.35,52.35 0 0 0 0.2,-5.71c-0.12,-2.73 -0.76,-7.38 -0.76,-7.38a2.52,2.52 0 0 1 0.8,-2.37c1.17,-1.32 4.29,-5.59 5.56,-6.45s1.15,-1.43 1,-1.9zm-10.37,29.8c-2.26,3.44 -4.71,5.69 -7.08,1.87s2.32,-11.32 5.15,-15.84s3.26,-4.12 3.26,-4.12c0.43,0 0.39,0.11 0.89,4.33s0.04,10.32 -2.22,13.76z" id="svg_9" transform="translate(-594.02 -188.93)"/>
  <path class="cls-7" d="m714.82,203.53c-3.16,-4.71 -12,0.77 -10.88,6.88c2.92,11.12 16.16,1.59 10.88,-6.88zm-3.38,9.6c-3,1.14 -6,-0.72 -6,-4.91c1.07,-5.08 8.69,-6.82 9.55,-0.57a6,6 0 0 1 -3.55,5.48z" id="svg_10" transform="translate(-594.02 -188.93)"/>
  <path class="cls-5" d="m717.33,209.68c-0.09,2.19 1,3.06 2.92,3.39s2.63,-2.51 2.63,-2.51s-1.1,4.53 -2.84,4.66s-3.83,-1.92 -4.38,-3.43s0.21,-6.81 0.63,-8.41a1.92,1.92 0 0 1 1.86,-1.55s-0.74,5.66 -0.82,7.85z" id="svg_11" transform="translate(-594.02 -188.93)"/>
  <path class="cls-7" d="m720.45,199.72l1.71,0.3a2.08,2.08 0 0 1 -0.72,1.92a11.29,11.29 0 0 0 -1.7,2a4.88,4.88 0 0 1 0.56,-2c0.55,-1.11 0.87,-1.56 0.15,-2.22z" id="svg_12" transform="translate(-594.02 -188.93)"/>
  <path class="cls-8" d="m745,205s1.92,-3 4.51,-3.07s3.31,0.79 3.93,3.13s-1.33,7.64 1.49,8.42a3.52,3.52 0 0 0 1.3,-0.06a0.44,0.44 0 0 1 0.56,0.64c-0.16,0.23 -1.95,1.91 -3.64,0.42s-1,-6.07 -0.86,-6.67s0.77,-3.57 -1,-4.48a2.11,2.11 0 0 0 -2.06,0.06s-2.76,0.12 -4.23,1.61z" id="svg_13" transform="translate(-594.02 -188.93)"/>
  <path class="cls-6" d="m720,215.22s2.26,0.4 5.68,-6.5s6.74,-4.82 7.09,-3.25s0.57,1.06 0.28,3.89a20.64,20.64 0 0 1 -0.68,4s-0.14,1 0.41,1.36s0.76,-0.26 0.79,-0.41l0.81,-4.29s0.9,-5.79 4.94,-6.66s2.81,6.66 2.79,7.44s-0.7,3 -0.33,3.3s1,-0.2 1.09,-0.73a16.6,16.6 0 0 1 0.56,-3.38a19,19 0 0 1 1.63,-3.14a8.15,8.15 0 0 1 4.13,-3.49s-2.86,-0.19 -4.21,1.61c0,0 -0.81,1.52 -1.37,1.13a9.26,9.26 0 0 1 -0.72,-2c-0.24,-1 -1.45,-3 -3.52,-2.81a5.69,5.69 0 0 0 -4.14,2.43c-0.5,0.9 -1.18,1.65 -1.91,0.26s-3.88,-1.71 -4.91,-1.13s-2.34,0.64 -5.57,7.67c0.04,0.04 -1.02,3.68 -2.84,4.7z" id="svg_14" transform="translate(-594.02 -188.93)"/>
 </g>
</svg>