<svg width="168" height="58.00000000000001" xmlns="http://www.w3.org/2000/svg" xmlns:svg="http://www.w3.org/2000/svg" data-name="Layer 1">
 <defs>
  <style>.cls-1,.cls-6{fill:#2e3677;}.cls-1{stroke:#2d3677;}.cls-1,.cls-2,.cls-3,.cls-4{stroke-miterlimit:10;}.cls-1,.cls-3,.cls-4{stroke-width:0.52px;}.cls-2,.cls-8{fill:#3a667c;}.cls-2{stroke:#3a667c;stroke-width:0.13px;}.cls-3,.cls-5{fill:#6e396d;}.cls-3{stroke:#6f396d;}.cls-4,.cls-7{fill:#8088bf;}.cls-4{stroke:#8088bf;}</style>
  <filter id="svg_17_blur">
   <feGaussianBlur in="SourceGraphic" stdDeviation="2.5"/>
  </filter>
  <filter id="svg_33_blur">
   <feGaussianBlur in="SourceGraphic" stdDeviation="0"/>
  </filter>
  <filter id="svg_18_blur">
   <feGaussianBlur in="SourceGraphic" stdDeviation="0.5"/>
  </filter>
 </defs>
 <g class="layer">
  <title>Layer 1</title>
  <rect fill="#ffffff" filter="url(#svg_17_blur)" height="51.4" id="svg_17" rx="5" ry="5" stroke="null" stroke-dasharray="null" stroke-linecap="null" stroke-linejoin="null" stroke-opacity="null" width="159.7" x="0.3" y="-80.5"/>
  <rect fill="null" fill-opacity="null" height="0" id="svg_16" stroke="null" stroke-dasharray="null" stroke-linecap="null" stroke-linejoin="null" stroke-opacity="null" width="0" x="54.98" y="32.07"/>
  <g filter="url(#svg_18_blur)" id="svg_18" transform="matrix(1, 0, 0, 1, 0, 0)">
   <g filter="url(#svg_33_blur)" id="svg_33">
    <path d="m121.7,32.25s2.07,0.37 5.2,-5.95s6.17,-4.41 6.49,-2.97s0.52,0.97 0.26,3.56a18.89,18.89 0 0 1 -0.62,3.66s-0.13,0.92 0.38,1.24s0.7,-0.24 0.72,-0.38l0.74,-3.93s0.82,-5.3 4.52,-6.1s2.57,6.1 2.55,6.81s-0.64,2.75 -0.3,3.02s0.92,-0.18 1,-0.67a15.19,15.19 0 0 1 0.51,-3.09a17.39,17.39 0 0 1 1.49,-2.87a7.46,7.46 0 0 1 3.78,-3.19s-2.62,-0.17 -3.85,1.47c0,0 -0.74,1.39 -1.25,1.03a8.48,8.48 0 0 1 -0.66,-1.83c-0.22,-0.92 -1.33,-2.75 -3.22,-2.57a5.21,5.21 0 0 0 -3.79,2.22c-0.46,0.82 -1.08,1.51 -1.75,0.24s-3.55,-1.57 -4.49,-1.03s-2.14,0.59 -5.1,7.02c0.04,0.04 -0.93,3.37 -2.6,4.3l-0.01,0.01z" fill="#ffffff" fill-opacity="null" id="svg_19" stroke="#ffffff" stroke-dasharray="null" stroke-linecap="null" stroke-linejoin="null" stroke-opacity="null" stroke-width="null"/>
    <path d="m22.87,23.76a3.42,3.42 0 0 1 0.58,-0.41a9.75,9.75 0 0 1 2.16,-1.35a15.07,15.07 0 0 1 3.84,-0.97c0.68,0.17 1.39,0 1.92,0.2a7.5,7.5 0 0 0 0.72,0.5c0.19,0.41 0.38,0.53 0.43,0.7a4.2,4.2 0 0 1 0.09,1a4.36,4.36 0 0 1 -0.48,1.44a3.92,3.92 0 0 1 -0.43,0.7c-0.38,0.33 -0.58,0.59 -0.77,0.74c-0.43,0.27 -0.72,0.44 -1.01,0.59a8.73,8.73 0 0 1 -1.78,0.53a2.91,2.91 0 0 1 -0.92,0.27a12.81,12.81 0 0 1 -1.92,0.56c-0.34,0.08 -0.81,0.29 -1.24,0.41s-0.92,0.11 -1.3,0.2c0.28,0.41 0,1.03 0.43,1.44a11.43,11.43 0 0 0 2.69,0.12c0.34,0 0.72,-0.17 1.11,-0.2a8.3,8.3 0 0 0 1.83,-0.38a15.56,15.56 0 0 0 4.8,-1.83a8.91,8.91 0 0 0 2.31,-1.38a4.52,4.52 0 0 1 2.25,-0.92c0.53,0 1.21,0.44 0.68,0.85a18.89,18.89 0 0 1 -2.07,1.01a20.33,20.33 0 0 0 -2.11,1.32c-0.24,0.15 -0.77,0.41 -1.01,0.59a11.27,11.27 0 0 1 -1.39,0.62c-0.38,-0.06 -0.53,0.15 -0.81,0.29s-0.38,0.15 -0.58,0.24c-0.53,0.26 -1.15,0.52 -1.73,0.73c-1.24,0.47 -2.54,0.73 -3.74,1.21l-0.92,0.08a2.65,2.65 0 0 1 -1.11,0a5.84,5.84 0 0 1 -2.5,-0.92a8.64,8.64 0 0 1 -1.15,-0.65a5.56,5.56 0 0 1 -0.92,-2.35a6.26,6.26 0 0 0 0.68,-2.03a6.1,6.1 0 0 0 1.15,-1.46c0.18,-0.07 1.87,-1.43 2.2,-1.48l0.02,-0.01zm3.89,0.56a5.24,5.24 0 0 1 -1.44,1.06a2.12,2.12 0 0 1 -0.92,0.65c-0.33,0.38 -1.29,0.67 -0.92,1.26a6.15,6.15 0 0 0 1.92,-0.36c0.53,-0.17 1.11,-0.32 1.54,-0.49s0.81,-0.5 1.2,-0.74a7.56,7.56 0 0 0 1.11,-0.82c0.09,-0.35 0.62,-0.79 0.58,-1.17c0,-0.21 -0.29,-0.36 -0.34,-0.56a4.85,4.85 0 0 0 -1.29,0.27a9.69,9.69 0 0 1 -1.45,0.91l0.01,-0.01z" fill="#ffffff" fill-opacity="null" id="svg_20" stroke="#ffffff" stroke-dasharray="null" stroke-linecap="null" stroke-linejoin="null" stroke-opacity="null" stroke-width="null"/>
    <path d="m32.46,13.43a0.58,0.58 0 0 1 0.12,0.49c0,0.19 -0.42,0.43 -0.58,0.59c-0.43,0.24 -0.5,0.42 -0.74,0.5a5.23,5.23 0 0 1 -2.13,0.16a5.24,5.24 0 0 0 -1.32,0.14c-0.19,0 -0.27,0.07 -0.5,0.1s-0.5,0 -0.66,0.14c-0.19,0 -0.16,0 -0.42,0a1.53,1.53 0 0 0 -0.62,0.14a1.93,1.93 0 0 0 -0.66,0.05a3.16,3.16 0 0 0 -0.92,0.18c-0.05,0.1 -0.2,0.18 -0.16,0.29c-0.31,0.24 -0.47,0.58 -0.78,0.79a1.99,1.99 0 0 1 -0.54,0.53c-0.12,0.27 -0.39,0.42 -0.59,0.64c-0.42,0.52 -0.81,1.47 -1.27,1.98a9,9 0 0 1 -0.86,1.12a19.64,19.64 0 0 1 -1.83,3.17c-0.19,0.32 -0.31,0.35 -0.31,0.46a3.22,3.22 0 0 0 -0.5,0.69c-0.31,0.42 -0.42,0.66 -0.54,0.81s-0.12,0.27 -0.19,0.35a1.61,1.61 0 0 0 -0.27,0.53c-0.35,0.48 -0.42,0.79 -0.66,1.03a0.86,0.86 0 0 1 -0.19,0.46c0.08,0.26 -0.27,0.63 -0.47,0.92c-0.31,0.48 -0.54,0.66 -0.66,0.92a6.32,6.32 0 0 1 -0.54,0.66a7.09,7.09 0 0 1 -0.78,1.03a1.83,1.83 0 0 1 0,0.45a1.18,1.18 0 0 1 -0.54,0.45c-0.38,0 -0.62,0.05 -0.81,0.05a2.05,2.05 0 0 1 -0.73,-0.34c-0.47,-0.4 -1.09,-0.7 -1.13,-1.14c0,-0.24 0.07,-0.52 0.5,-0.6c0.47,-0.71 0.73,-1.27 1.08,-1.83a3.05,3.05 0 0 0 0.27,-0.42a3.66,3.66 0 0 0 0.23,-0.42c0.16,-0.27 0.39,-0.5 0.59,-0.77a11.28,11.28 0 0 1 1.2,-1.51c0.12,-0.21 0.27,-0.34 0.39,-0.55s0,-0.35 0,-0.5s0.38,-0.35 0.38,-0.56a8.24,8.24 0 0 0 0.73,-0.77c0.19,-0.27 0.27,-0.42 0.39,-0.58a0.92,0.92 0 0 0 0.19,-0.27a2.49,2.49 0 0 1 0.54,-0.71a2.29,2.29 0 0 1 0.62,-0.77a10.71,10.71 0 0 1 0.81,-1.24c0.23,-0.37 0.46,-1.08 0.73,-1.43c0.62,-0.81 1.16,-1.61 1.78,-2.41a19.45,19.45 0 0 1 -2.21,0c-0.27,0 -0.24,0.08 -0.55,0.05s-0.38,-0.05 -0.61,-0.05a7.88,7.88 0 0 0 -1.52,0.21c-0.61,0.08 -0.58,0.24 -1.08,0.32c-0.27,0.05 -0.54,0 -0.78,0.11a1.95,1.95 0 0 1 -1.27,-0.74c-0.12,-0.14 -0.39,0 -0.43,-0.19a0.82,0.82 0 0 1 0,-0.42c0.54,-0.31 0.92,-0.31 1.16,-0.48c0.85,-0.1 1.2,-0.21 2.1,-0.34c0.38,-0.14 0.38,-0.11 0.46,-0.11c0.5,-0.08 1.24,-0.18 1.9,-0.27a11.31,11.31 0 0 1 1.83,-0.05a20.59,20.59 0 0 0 2.67,-0.16c0.27,-0.05 0.5,-0.08 0.66,-0.1c0.3,0 0.58,0 0.73,-0.14c1.94,-0.27 3.02,-0.39 5,-0.63a15.49,15.49 0 0 1 2.05,-0.11c0.31,0 0.62,0 1.01,0.05a3.03,3.03 0 0 0 1.09,0.05l0.11,0.01l0.03,-0.01z" fill="#ffffff" id="svg_21" stroke="#ffffff" stroke-dasharray="null" stroke-linecap="null" stroke-linejoin="null" stroke-opacity="null" stroke-width="null"/>
    <path d="m50.25,25.74c-0.38,0.27 -0.42,0.46 -0.67,0.5c-0.67,0.64 -1.67,1.13 -2.42,1.74c-0.25,0.15 -0.49,0.33 -0.74,0.5c-0.59,0.26 -1.04,0.59 -1.58,0.92c-0.25,0.13 -0.5,0.23 -0.75,0.38a8.29,8.29 0 0 1 -0.75,0.38c-0.33,0.23 -0.66,0.49 -0.92,0.71c-0.62,0.18 -1.04,0.46 -1.67,0.61a4.05,4.05 0 0 1 -0.92,0.43a2.75,2.75 0 0 1 -1.29,-0.07a2.04,2.04 0 0 0 -0.54,-0.13a3.66,3.66 0 0 1 -0.92,-1.53a2.92,2.92 0 0 1 -0.21,-0.56a2.21,2.21 0 0 0 -0.16,-0.44a2.69,2.69 0 0 1 -0.29,-0.56a2.54,2.54 0 0 1 0,-1.12a10.28,10.28 0 0 1 1.67,-3a4.99,4.99 0 0 1 0.49,-0.92a1.67,1.67 0 0 0 0.46,-0.84a8.38,8.38 0 0 0 0.59,-0.92a7.05,7.05 0 0 1 0.49,-0.92c0.42,-0.69 0.8,-1.32 1.21,-1.93a1.83,1.83 0 0 1 0.42,-0.59a1.29,1.29 0 0 1 0.46,-0.49c0,-0.17 0.25,-0.23 0.33,-0.36c0.25,-0.25 0.38,-0.56 0.62,-0.79l0.5,-0.38a1.27,1.27 0 0 1 0.41,-0.38c0.54,-0.59 1.34,-1.17 2.04,-1.83a13.87,13.87 0 0 1 1.84,-1.35a1.95,1.95 0 0 1 0.92,-0.43a2.44,2.44 0 0 1 0.79,0.05a1.56,1.56 0 0 1 0.42,0.56a8.6,8.6 0 0 1 -0.46,2.9c0,0.16 0,0.33 0,0.49s-0.28,0.56 -0.38,0.81c0,0.49 -0.49,0.79 -0.58,1.17c-0.16,0.07 -0.13,0.25 -0.29,0.33c-0.08,0.36 -0.41,0.63 -0.59,0.92c-0.79,0.69 -1.66,1.32 -2.41,2c-0.96,0.92 -2.04,1.64 -2.96,2.5c-0.7,0.36 -1.13,0.87 -1.83,1.23c-0.25,0.69 -0.54,1.47 -0.79,2.26a5.49,5.49 0 0 1 -0.29,0.69c-0.13,0.26 0.05,0.59 -0.16,0.84c0.13,0.18 0.08,0.41 0.25,0.56a0.83,0.83 0 0 0 0.5,0.23a2.44,2.44 0 0 1 0.46,-0.1a3.5,3.5 0 0 0 0.74,-0.4a2.42,2.42 0 0 0 0.55,-0.23a1.38,1.38 0 0 0 0.41,-0.16c0.67,-0.49 1.5,-0.64 1.96,-1.02l0.7,-0.28c0.33,-0.1 0.54,-0.3 0.92,-0.4c0.08,-0.11 0.21,-0.16 0.29,-0.26c0.66,-0.26 1.29,-0.54 1.95,-0.79c0.13,-0.18 0.42,-0.26 0.59,-0.36s0.25,-0.26 0.49,-0.28c0,-0.16 0.29,-0.2 0.42,-0.33c0.4,0.09 0.66,0.31 0.66,0.4l0.02,0.04zm-2.96,-9.65c-0.5,0.05 -0.62,0.33 -0.79,0.63s-0.38,0.33 -0.34,0.59a57.77,57.77 0 0 0 -4.37,5.49c1.08,-0.66 2,-1.7 2.99,-2.39c0.8,-1.13 1.83,-2.01 2.33,-3.24c-0.21,-0.38 0.25,-0.66 0.21,-1.06l-0.05,-0.02l0.02,0z" fill="#ffffff" fill-opacity="null" id="svg_22" stroke="#ffffff" stroke-dasharray="null" stroke-linecap="null" stroke-linejoin="null" stroke-opacity="null" stroke-width="null"/>
    <path d="m50.76,23.81a2.75,2.75 0 0 1 0.58,-0.41a9.06,9.06 0 0 1 2.12,-1.42c1.24,-0.32 2.35,-0.92 3.84,-0.97c0.67,0.17 1.39,0 1.91,0.2c0.29,0.3 0.63,0.38 0.72,0.5c0.19,0.41 0.38,0.53 0.43,0.7a4.42,4.42 0 0 1 0.1,1a4.49,4.49 0 0 1 -0.49,1.45a4.04,4.04 0 0 1 -0.43,0.7c-0.38,0.32 -0.58,0.59 -0.77,0.73c-0.43,0.27 -0.71,0.44 -1.01,0.59a8.24,8.24 0 0 1 -1.78,0.53a2.68,2.68 0 0 1 -0.92,0.27a11.52,11.52 0 0 1 -1.92,0.56c-0.33,0.09 -0.81,0.29 -1.24,0.41s-0.96,0.12 -1.3,0.2c0.29,0.41 0.05,1.03 0.43,1.45a11.9,11.9 0 0 0 2.69,0.12c0.34,0 0.72,-0.18 1.11,-0.21a8.49,8.49 0 0 0 1.88,-0.38a15.38,15.38 0 0 0 4.8,-1.83a8.67,8.67 0 0 0 2.31,-1.38a4.43,4.43 0 0 1 2.26,-0.92c0.52,0 1.2,0.44 0.67,0.85a19.55,19.55 0 0 1 -2.06,1a20.93,20.93 0 0 0 -2.11,1.32c-0.25,0.15 -0.77,0.41 -1.01,0.59a11.36,11.36 0 0 1 -1.4,0.61c-0.38,-0.05 -0.52,0.15 -0.81,0.29s-0.38,0.15 -0.58,0.24a14.64,14.64 0 0 1 -1.73,0.73c-1.24,0.48 -2.54,0.73 -3.74,1.21l-0.92,0.08a2.65,2.65 0 0 1 -1.11,0a5.8,5.8 0 0 1 -2.49,-0.92a8.1,8.1 0 0 1 -1.15,-0.65a5.49,5.49 0 0 1 -0.92,-2.35a6.49,6.49 0 0 0 0.67,-2.02a6.33,6.33 0 0 0 1.15,-1.47c0.18,-0.04 1.87,-1.4 2.21,-1.4l0.01,0zm3.89,0.56a5.25,5.25 0 0 1 -1.45,1.05a2.02,2.02 0 0 1 -0.92,0.65c-0.34,0.38 -1.3,0.68 -0.96,1.26a6.25,6.25 0 0 0 1.92,-0.36c0.52,-0.17 1.1,-0.32 1.53,-0.49s0.82,-0.5 1.21,-0.73a8.81,8.81 0 0 0 1.1,-0.82c0.1,-0.36 0.63,-0.8 0.58,-1.18c-0.05,-0.2 -0.28,-0.35 -0.33,-0.56a4.92,4.92 0 0 0 -1.3,0.27a9.63,9.63 0 0 1 -1.38,0.87l0,0.05l0,-0.01z" fill="#ffffff" fill-opacity="null" id="svg_23" stroke="#ffffff" stroke-dasharray="null" stroke-linecap="null" stroke-linejoin="null" stroke-opacity="null" stroke-width="null"/>
    <path d="m77.8,14.66l7.61,18.15s0.84,1.21 -0.09,1.83a0.86,0.86 0 0 1 -1.36,-0.33l-1.49,-3.49s-5.49,-15.31 -6.97,-18.15s-0.41,-3.99 -0.41,-3.99a64.47,64.47 0 0 1 2.72,5.98l-0.01,0z" fill="#ffffff" fill-opacity="null" id="svg_24" stroke="#ffffff" stroke-dasharray="null" stroke-linecap="null" stroke-linejoin="null" stroke-opacity="null" stroke-width="null"/>
    <path d="m63.79,32.85s23.64,-9.66 27.84,-11.42a17.45,17.45 0 0 1 6.9,-1.6s-32.03,14.4 -34.08,15.22a2.08,2.08 0 0 1 -2.81,-1.12l2.15,-1.08z" fill="#ffffff" fill-opacity="null" id="svg_25" stroke="#ffffff" stroke-dasharray="null" stroke-linecap="null" stroke-linejoin="null" stroke-opacity="null" stroke-width="null"/>
    <path d="m74.7,12.71l-0.98,1.95s-2.57,5.26 -2.53,5.49s-2.75,5.49 -2.75,5.49l-0.5,0.85s-1.66,2.79 -3.42,5.67c-0.67,2.86 -1.13,3.13 -2.42,2.29a1.22,1.22 0 0 1 -0.5,-0.62a1.33,1.33 0 0 1 -0.16,-0.16c0,-0.05 0.06,-0.09 0.09,-0.15a2.79,2.79 0 0 1 0.59,-1.59l2.44,-3.99c3.79,-7.32 9.32,-18.62 9.32,-18.62s0.53,-2.17 1.15,-0.74s-0.35,4.13 -0.35,4.13l0.02,0z" fill="#ffffff" fill-opacity="null" id="svg_26" stroke="#ffffff" stroke-dasharray="null" stroke-linecap="null" stroke-linejoin="null" stroke-opacity="null" stroke-width="null"/>
    <path d="m102.38,26.98a36.74,36.74 0 0 1 -0.13,-4.62s-0.23,-1.56 -2.51,-2.25a5.65,5.65 0 0 0 -1.83,-0.28s-2.86,-0.36 -5.25,3.52s-1.4,7.19 0.92,8.96s6.32,-0.68 7.25,-1.83s1.78,-2.33 1.56,-3.5l-0.01,0zm-2.96,2.75c-1.24,1.23 -4.58,2.75 -6.16,0.08a4.26,4.26 0 0 1 0,-4.71a8.52,8.52 0 0 1 1.53,-2.02a9.15,9.15 0 0 1 2.81,-1.68s2.8,-0.97 3.51,2.43s-0.45,4.73 -1.69,5.95l0,-0.04l0,-0.01z" fill="#ffffff" fill-opacity="null" id="svg_27" stroke="#ffffff" stroke-dasharray="null" stroke-linecap="null" stroke-linejoin="null" stroke-opacity="null" stroke-width="null"/>
    <path d="m116.71,21.55c-2.89,-4.31 -10.98,0.7 -9.96,6.3c2.67,10.18 14.79,1.46 9.96,-6.3zm-3.09,8.79c-2.75,1.04 -5.49,-0.66 -5.49,-4.49c0.98,-4.65 7.95,-6.24 8.74,-0.52a5.49,5.49 0 0 1 -3.25,5.02l0,-0.01z" fill="#ffffff" fill-opacity="null" id="svg_28" stroke="#ffffff" stroke-dasharray="null" stroke-linecap="null" stroke-linejoin="null" stroke-opacity="null" stroke-width="null"/>
    <path d="m119.26,27.18c-0.08,2 0.92,2.8 2.67,3.1s2.41,-2.3 2.41,-2.3s-1.01,4.15 -2.6,4.26s-3.51,-1.76 -4.01,-3.14s0.19,-6.23 0.58,-7.7a1.76,1.76 0 0 1 1.7,-1.42s-0.68,5.18 -0.75,7.18l0,0.02z" fill="#ffffff" fill-opacity="null" id="svg_29" stroke="#ffffff" stroke-dasharray="null" stroke-linecap="null" stroke-linejoin="null" stroke-opacity="null" stroke-width="null"/>
    <path d="m121.87,18.07l1.57,0.27a1.9,1.9 0 0 1 -0.66,1.76a10.33,10.33 0 0 0 -1.56,1.83a4.47,4.47 0 0 1 0.51,-1.83c0.5,-1.02 0.8,-1.43 0.14,-2.03z" fill="#ffffff" fill-opacity="null" id="svg_30" stroke="#ffffff" stroke-dasharray="null" stroke-linecap="null" stroke-linejoin="null" stroke-opacity="null" stroke-width="null"/>
    <path d="m144.59,22.9s1.76,-2.75 4.13,-2.81s3.03,0.72 3.6,2.86s-1.22,6.99 1.36,7.71a3.22,3.22 0 0 0 1.19,-0.05a0.4,0.4 0 0 1 0.51,0.59c-0.15,0.21 -1.78,1.75 -3.33,0.38s-0.92,-5.56 -0.79,-6.1s0.7,-3.27 -0.92,-4.1a1.93,1.93 0 0 0 -1.89,0.05s-2.53,0.11 -3.87,1.47l0.01,0z" fill="#ffffff" fill-opacity="null" id="svg_31" stroke="#ffffff" stroke-dasharray="null" stroke-linecap="null" stroke-linejoin="null" stroke-opacity="null" stroke-width="null"/>
    <path d="m111.1,21.34c-0.14,-0.42 -0.66,-0.81 -1.56,0.13s-4.08,5 -4.08,5s-1.14,2.05 -1.7,0.16s-1.32,-4.58 -1.83,-4.58c0,0 -0.97,0.65 -0.43,2.98s1.04,3.94 1.04,3.94s0.65,0.46 -0.84,2.11a59.61,59.61 0 0 0 -4.96,7.16a47.05,47.05 0 0 0 -3.52,8.05a7.94,7.94 0 0 0 0.42,5.1c0.65,1.35 1.55,3.13 4.43,2.37s4.85,-4.51 4.85,-4.51s1.92,-4.52 1.96,-6.11a47.91,47.91 0 0 0 0.18,-5.23c-0.11,-2.5 -0.7,-6.75 -0.7,-6.75a2.31,2.31 0 0 1 0.73,-2.17c1.07,-1.21 3.93,-5.12 5.09,-5.9s1.05,-1.31 0.92,-1.74l0,-0.01zm-9.49,27.27c-2.07,3.15 -4.31,5.21 -6.48,1.71s2.12,-10.36 4.71,-14.5s2.98,-3.77 2.98,-3.77c0.39,0 0.36,0.1 0.81,3.96s0.04,9.45 -2.03,12.59l0.01,0.01z" fill="#ffffff" fill-opacity="null" id="svg_32" stroke="#ffffff" stroke-dasharray="null" stroke-linecap="null" stroke-linejoin="null" stroke-opacity="null" stroke-width="null"/>
   </g>
  </g>
  <g id="svg_15">
   <path class="cls-6" d="m121.22,31.56s2.07,0.37 5.2,-5.95s6.17,-4.41 6.49,-2.97s0.52,0.97 0.26,3.56a18.89,18.89 0 0 1 -0.62,3.66s-0.13,0.92 0.38,1.24s0.7,-0.24 0.72,-0.38l0.74,-3.93s0.82,-5.3 4.52,-6.1s2.57,6.1 2.55,6.81s-0.64,2.75 -0.3,3.02s0.92,-0.18 1,-0.67a15.19,15.19 0 0 1 0.51,-3.09a17.39,17.39 0 0 1 1.49,-2.87a7.46,7.46 0 0 1 3.78,-3.19s-2.62,-0.17 -3.85,1.47c0,0 -0.74,1.39 -1.25,1.03a8.48,8.48 0 0 1 -0.66,-1.83c-0.22,-0.92 -1.33,-2.75 -3.22,-2.57a5.21,5.21 0 0 0 -3.79,2.22c-0.46,0.82 -1.08,1.51 -1.75,0.24s-3.55,-1.57 -4.49,-1.03s-2.14,0.59 -5.1,7.02c0.04,0.04 -0.93,3.37 -2.6,4.3l-0.01,0.01z" id="svg_14"/>
   <path class="cls-1" d="m22.39,23.07a3.42,3.42 0 0 1 0.58,-0.41a9.75,9.75 0 0 1 2.16,-1.35a15.07,15.07 0 0 1 3.84,-0.97c0.68,0.17 1.39,0 1.92,0.2a7.5,7.5 0 0 0 0.72,0.5c0.19,0.41 0.38,0.53 0.43,0.7a4.2,4.2 0 0 1 0.09,1a4.36,4.36 0 0 1 -0.48,1.44a3.92,3.92 0 0 1 -0.43,0.7c-0.38,0.33 -0.58,0.59 -0.77,0.74c-0.43,0.27 -0.72,0.44 -1.01,0.59a8.73,8.73 0 0 1 -1.78,0.53a2.91,2.91 0 0 1 -0.92,0.27a12.81,12.81 0 0 1 -1.92,0.56c-0.34,0.08 -0.81,0.29 -1.24,0.41s-0.92,0.11 -1.3,0.2c0.28,0.41 0,1.03 0.43,1.44a11.43,11.43 0 0 0 2.69,0.12c0.34,0 0.72,-0.17 1.11,-0.2a8.3,8.3 0 0 0 1.83,-0.38a15.56,15.56 0 0 0 4.8,-1.83a8.91,8.91 0 0 0 2.31,-1.38a4.52,4.52 0 0 1 2.25,-0.92c0.53,0 1.21,0.44 0.68,0.85a18.89,18.89 0 0 1 -2.07,1.01a20.33,20.33 0 0 0 -2.11,1.32c-0.24,0.15 -0.77,0.41 -1.01,0.59a11.27,11.27 0 0 1 -1.39,0.62c-0.38,-0.06 -0.53,0.15 -0.81,0.29s-0.38,0.15 -0.58,0.24c-0.53,0.26 -1.15,0.52 -1.73,0.73c-1.24,0.47 -2.54,0.73 -3.74,1.21l-0.92,0.08a2.65,2.65 0 0 1 -1.11,0a5.84,5.84 0 0 1 -2.5,-0.92a8.64,8.64 0 0 1 -1.15,-0.65a5.56,5.56 0 0 1 -0.92,-2.35a6.26,6.26 0 0 0 0.68,-2.03a6.1,6.1 0 0 0 1.15,-1.46c0.18,-0.07 1.87,-1.43 2.2,-1.48l0.02,-0.01zm3.89,0.56a5.24,5.24 0 0 1 -1.44,1.06a2.12,2.12 0 0 1 -0.92,0.65c-0.33,0.38 -1.29,0.67 -0.92,1.26a6.15,6.15 0 0 0 1.92,-0.36c0.53,-0.17 1.11,-0.32 1.54,-0.49s0.81,-0.5 1.2,-0.74a7.56,7.56 0 0 0 1.11,-0.82c0.09,-0.35 0.62,-0.79 0.58,-1.17c0,-0.21 -0.29,-0.36 -0.34,-0.56a4.85,4.85 0 0 0 -1.29,0.27a9.69,9.69 0 0 1 -1.45,0.91l0.01,-0.01z" id="svg_1"/>
   <path class="cls-2" d="m31.98,12.74a0.58,0.58 0 0 1 0.12,0.49c0,0.19 -0.42,0.43 -0.58,0.59c-0.43,0.24 -0.5,0.42 -0.74,0.5a5.23,5.23 0 0 1 -2.13,0.16a5.24,5.24 0 0 0 -1.32,0.14c-0.19,0 -0.27,0.07 -0.5,0.1s-0.5,0 -0.66,0.14c-0.19,0 -0.16,0 -0.42,0a1.53,1.53 0 0 0 -0.62,0.14a1.93,1.93 0 0 0 -0.66,0.05a3.16,3.16 0 0 0 -0.92,0.18c-0.05,0.1 -0.2,0.18 -0.16,0.29c-0.31,0.24 -0.47,0.58 -0.78,0.79a1.99,1.99 0 0 1 -0.54,0.53c-0.12,0.27 -0.39,0.42 -0.59,0.64c-0.42,0.52 -0.81,1.47 -1.27,1.98a9,9 0 0 1 -0.86,1.12a19.64,19.64 0 0 1 -1.83,3.17c-0.19,0.32 -0.31,0.35 -0.31,0.46a3.22,3.22 0 0 0 -0.5,0.69c-0.31,0.42 -0.42,0.66 -0.54,0.81s-0.12,0.27 -0.19,0.35a1.61,1.61 0 0 0 -0.27,0.53c-0.35,0.48 -0.42,0.79 -0.66,1.03a0.86,0.86 0 0 1 -0.19,0.46c0.08,0.26 -0.27,0.63 -0.47,0.92c-0.31,0.48 -0.54,0.66 -0.66,0.92a6.32,6.32 0 0 1 -0.54,0.66a7.09,7.09 0 0 1 -0.78,1.03a1.83,1.83 0 0 1 0,0.45a1.18,1.18 0 0 1 -0.54,0.45c-0.38,0 -0.62,0.05 -0.81,0.05a2.05,2.05 0 0 1 -0.73,-0.34c-0.47,-0.4 -1.09,-0.7 -1.13,-1.14c0,-0.24 0.07,-0.52 0.5,-0.6c0.47,-0.71 0.73,-1.27 1.08,-1.83a3.05,3.05 0 0 0 0.27,-0.42a3.66,3.66 0 0 0 0.23,-0.42c0.16,-0.27 0.39,-0.5 0.59,-0.77a11.28,11.28 0 0 1 1.2,-1.51c0.12,-0.21 0.27,-0.34 0.39,-0.55s0,-0.35 0,-0.5s0.38,-0.35 0.38,-0.56a8.24,8.24 0 0 0 0.73,-0.77c0.19,-0.27 0.27,-0.42 0.39,-0.58a0.92,0.92 0 0 0 0.19,-0.27a2.49,2.49 0 0 1 0.54,-0.71a2.29,2.29 0 0 1 0.62,-0.77a10.71,10.71 0 0 1 0.81,-1.24c0.23,-0.37 0.46,-1.08 0.73,-1.43c0.62,-0.81 1.16,-1.61 1.78,-2.41a19.45,19.45 0 0 1 -2.21,0c-0.27,0 -0.24,0.08 -0.55,0.05s-0.38,-0.05 -0.61,-0.05a7.88,7.88 0 0 0 -1.52,0.21c-0.61,0.08 -0.58,0.24 -1.08,0.32c-0.27,0.05 -0.54,0 -0.78,0.11a1.95,1.95 0 0 1 -1.27,-0.74c-0.12,-0.14 -0.39,0 -0.43,-0.19a0.82,0.82 0 0 1 0,-0.42c0.54,-0.31 0.92,-0.31 1.16,-0.48c0.85,-0.1 1.2,-0.21 2.1,-0.34c0.38,-0.14 0.38,-0.11 0.46,-0.11c0.5,-0.08 1.24,-0.18 1.9,-0.27a11.31,11.31 0 0 1 1.83,-0.05a20.59,20.59 0 0 0 2.67,-0.16c0.27,-0.05 0.5,-0.08 0.66,-0.1c0.3,0 0.58,0 0.73,-0.14c1.94,-0.27 3.02,-0.39 5,-0.63a15.49,15.49 0 0 1 2.05,-0.11c0.31,0 0.62,0 1.01,0.05a3.03,3.03 0 0 0 1.09,0.05l0.11,0.01l0.03,-0.01z" id="svg_2"/>
   <path class="cls-3" d="m49.77,25.05c-0.38,0.27 -0.42,0.46 -0.67,0.5c-0.67,0.64 -1.67,1.13 -2.42,1.74c-0.25,0.15 -0.49,0.33 -0.74,0.5c-0.59,0.26 -1.04,0.59 -1.58,0.92c-0.25,0.13 -0.5,0.23 -0.75,0.38a8.29,8.29 0 0 1 -0.75,0.38c-0.33,0.23 -0.66,0.49 -0.92,0.71c-0.62,0.18 -1.04,0.46 -1.67,0.61a4.05,4.05 0 0 1 -0.92,0.43a2.75,2.75 0 0 1 -1.29,-0.07a2.04,2.04 0 0 0 -0.54,-0.13a3.66,3.66 0 0 1 -0.92,-1.53a2.92,2.92 0 0 1 -0.21,-0.56a2.21,2.21 0 0 0 -0.16,-0.44a2.69,2.69 0 0 1 -0.29,-0.56a2.54,2.54 0 0 1 0,-1.12a10.28,10.28 0 0 1 1.67,-3a4.99,4.99 0 0 1 0.49,-0.92a1.67,1.67 0 0 0 0.46,-0.84a8.38,8.38 0 0 0 0.59,-0.92a7.05,7.05 0 0 1 0.49,-0.92c0.42,-0.69 0.8,-1.32 1.21,-1.93a1.83,1.83 0 0 1 0.42,-0.59a1.29,1.29 0 0 1 0.46,-0.49c0,-0.17 0.25,-0.23 0.33,-0.36c0.25,-0.25 0.38,-0.56 0.62,-0.79l0.5,-0.38a1.27,1.27 0 0 1 0.41,-0.38c0.54,-0.59 1.34,-1.17 2.04,-1.83a13.87,13.87 0 0 1 1.84,-1.35a1.95,1.95 0 0 1 0.92,-0.43a2.44,2.44 0 0 1 0.79,0.05a1.56,1.56 0 0 1 0.42,0.56a8.6,8.6 0 0 1 -0.46,2.9c0,0.16 0,0.33 0,0.49s-0.28,0.56 -0.38,0.81c0,0.49 -0.49,0.79 -0.58,1.17c-0.16,0.07 -0.13,0.25 -0.29,0.33c-0.08,0.36 -0.41,0.63 -0.59,0.92c-0.79,0.69 -1.66,1.32 -2.41,2c-0.96,0.92 -2.04,1.64 -2.96,2.5c-0.7,0.36 -1.13,0.87 -1.83,1.23c-0.25,0.69 -0.54,1.47 -0.79,2.26a5.49,5.49 0 0 1 -0.29,0.69c-0.13,0.26 0.05,0.59 -0.16,0.84c0.13,0.18 0.08,0.41 0.25,0.56a0.83,0.83 0 0 0 0.5,0.23a2.44,2.44 0 0 1 0.46,-0.1a3.5,3.5 0 0 0 0.74,-0.4a2.42,2.42 0 0 0 0.55,-0.23a1.38,1.38 0 0 0 0.41,-0.16c0.67,-0.49 1.5,-0.64 1.96,-1.02l0.7,-0.28c0.33,-0.1 0.54,-0.3 0.92,-0.4c0.08,-0.11 0.21,-0.16 0.29,-0.26c0.66,-0.26 1.29,-0.54 1.95,-0.79c0.13,-0.18 0.42,-0.26 0.59,-0.36s0.25,-0.26 0.49,-0.28c0,-0.16 0.29,-0.2 0.42,-0.33c0.4,0.09 0.66,0.31 0.66,0.4l0.02,0.04zm-2.96,-9.65c-0.5,0.05 -0.62,0.33 -0.79,0.63s-0.38,0.33 -0.34,0.59a57.77,57.77 0 0 0 -4.37,5.49c1.08,-0.66 2,-1.7 2.99,-2.39c0.8,-1.13 1.83,-2.01 2.33,-3.24c-0.21,-0.38 0.25,-0.66 0.21,-1.06l-0.05,-0.02l0.02,0z" id="svg_3"/>
   <path class="cls-4" d="m50.28,23.12a2.75,2.75 0 0 1 0.58,-0.41a9.06,9.06 0 0 1 2.12,-1.42c1.24,-0.32 2.35,-0.92 3.84,-0.97c0.67,0.17 1.39,0 1.91,0.2c0.29,0.3 0.63,0.38 0.72,0.5c0.19,0.41 0.38,0.53 0.43,0.7a4.42,4.42 0 0 1 0.1,1a4.49,4.49 0 0 1 -0.49,1.45a4.04,4.04 0 0 1 -0.43,0.7c-0.38,0.32 -0.58,0.59 -0.77,0.73c-0.43,0.27 -0.71,0.44 -1.01,0.59a8.24,8.24 0 0 1 -1.78,0.53a2.68,2.68 0 0 1 -0.92,0.27a11.52,11.52 0 0 1 -1.92,0.56c-0.33,0.09 -0.81,0.29 -1.24,0.41s-0.96,0.12 -1.3,0.2c0.29,0.41 0.05,1.03 0.43,1.45a11.9,11.9 0 0 0 2.69,0.12c0.34,0 0.72,-0.18 1.11,-0.21a8.49,8.49 0 0 0 1.88,-0.38a15.38,15.38 0 0 0 4.8,-1.83a8.67,8.67 0 0 0 2.31,-1.38a4.43,4.43 0 0 1 2.26,-0.92c0.52,0 1.2,0.44 0.67,0.85a19.55,19.55 0 0 1 -2.06,1a20.93,20.93 0 0 0 -2.11,1.32c-0.25,0.15 -0.77,0.41 -1.01,0.59a11.36,11.36 0 0 1 -1.4,0.61c-0.38,-0.05 -0.52,0.15 -0.81,0.29s-0.38,0.15 -0.58,0.24a14.64,14.64 0 0 1 -1.73,0.73c-1.24,0.48 -2.54,0.73 -3.74,1.21l-0.92,0.08a2.65,2.65 0 0 1 -1.11,0a5.8,5.8 0 0 1 -2.49,-0.92a8.1,8.1 0 0 1 -1.15,-0.65a5.49,5.49 0 0 1 -0.92,-2.35a6.49,6.49 0 0 0 0.67,-2.02a6.33,6.33 0 0 0 1.15,-1.47c0.18,-0.04 1.87,-1.4 2.21,-1.4l0.01,0zm3.89,0.56a5.25,5.25 0 0 1 -1.45,1.05a2.02,2.02 0 0 1 -0.92,0.65c-0.34,0.38 -1.3,0.68 -0.96,1.26a6.25,6.25 0 0 0 1.92,-0.36c0.52,-0.17 1.1,-0.32 1.53,-0.49s0.82,-0.5 1.21,-0.73a8.81,8.81 0 0 0 1.1,-0.82c0.1,-0.36 0.63,-0.8 0.58,-1.18c-0.05,-0.2 -0.28,-0.35 -0.33,-0.56a4.92,4.92 0 0 0 -1.3,0.27a9.63,9.63 0 0 1 -1.38,0.87l0,0.05l0,-0.01z" id="svg_4"/>
   <path class="cls-5" d="m77.32,13.97l7.61,18.15s0.84,1.21 -0.09,1.83a0.86,0.86 0 0 1 -1.36,-0.33l-1.49,-3.49s-5.49,-15.31 -6.97,-18.15s-0.41,-3.99 -0.41,-3.99a64.47,64.47 0 0 1 2.72,5.98l-0.01,0z" id="svg_5"/>
   <path class="cls-6" d="m63.31,32.16s23.64,-9.66 27.84,-11.42a17.45,17.45 0 0 1 6.9,-1.6s-32.03,14.4 -34.08,15.22a2.08,2.08 0 0 1 -2.81,-1.12l2.15,-1.08z" id="svg_6"/>
   <path class="cls-7" d="m74.22,12.02l-0.98,1.95s-2.57,5.26 -2.53,5.49s-2.75,5.49 -2.75,5.49l-0.5,0.85s-1.66,2.79 -3.42,5.67c-0.67,2.86 -1.13,3.13 -2.42,2.29a1.22,1.22 0 0 1 -0.5,-0.62a1.33,1.33 0 0 1 -0.16,-0.16c0,-0.05 0.06,-0.09 0.09,-0.15a2.79,2.79 0 0 1 0.59,-1.59l2.44,-3.99c3.79,-7.32 9.32,-18.62 9.32,-18.62s0.53,-2.17 1.15,-0.74s-0.35,4.13 -0.35,4.13l0.02,0z" id="svg_7"/>
   <path class="cls-7" d="m101.9,26.29a36.74,36.74 0 0 1 -0.13,-4.62s-0.23,-1.56 -2.51,-2.25a5.65,5.65 0 0 0 -1.83,-0.28s-2.86,-0.36 -5.25,3.52s-1.4,7.19 0.92,8.96s6.32,-0.68 7.25,-1.83s1.78,-2.33 1.56,-3.5l-0.01,0zm-2.96,2.75c-1.24,1.23 -4.58,2.75 -6.16,0.08a4.26,4.26 0 0 1 0,-4.71a8.52,8.52 0 0 1 1.53,-2.02a9.15,9.15 0 0 1 2.81,-1.68s2.8,-0.97 3.51,2.43s-0.45,4.73 -1.69,5.95l0,-0.04l0,-0.01z" id="svg_8"/>
   <path class="cls-7" d="m116.48,20.86c-2.89,-4.31 -10.98,0.7 -9.96,6.3c2.67,10.18 14.79,1.46 9.96,-6.3zm-3.09,8.79c-2.75,1.04 -5.49,-0.66 -5.49,-4.49c0.98,-4.65 7.95,-6.24 8.74,-0.52a5.49,5.49 0 0 1 -3.25,5.02l0,-0.01z" id="svg_10"/>
   <path class="cls-5" d="m118.78,26.49c-0.08,2 0.92,2.8 2.67,3.1s2.41,-2.3 2.41,-2.3s-1.01,4.15 -2.6,4.26s-3.51,-1.76 -4.01,-3.14s0.19,-6.23 0.58,-7.7a1.76,1.76 0 0 1 1.7,-1.42s-0.68,5.18 -0.75,7.18l0,0.02z" id="svg_11"/>
   <path class="cls-7" d="m121.64,17.38l1.57,0.27a1.9,1.9 0 0 1 -0.66,1.76a10.33,10.33 0 0 0 -1.56,1.83a4.47,4.47 0 0 1 0.51,-1.83c0.5,-1.02 0.8,-1.43 0.14,-2.03z" id="svg_12"/>
   <path class="cls-8" d="m144.11,22.21s1.76,-2.75 4.13,-2.81s3.03,0.72 3.6,2.86s-1.22,6.99 1.36,7.71a3.22,3.22 0 0 0 1.19,-0.05a0.4,0.4 0 0 1 0.51,0.59c-0.15,0.21 -1.78,1.75 -3.33,0.38s-0.92,-5.56 -0.79,-6.1s0.7,-3.27 -0.92,-4.1a1.93,1.93 0 0 0 -1.89,0.05s-2.53,0.11 -3.87,1.47l0.01,0z" id="svg_13"/>
   <path class="cls-8" d="m110.62,20.65c-0.14,-0.42 -0.66,-0.81 -1.56,0.13s-4.08,5 -4.08,5s-1.14,2.05 -1.7,0.16s-1.32,-4.58 -1.83,-4.58c0,0 -0.97,0.65 -0.43,2.98s1.04,3.94 1.04,3.94s0.65,0.46 -0.84,2.11a59.61,59.61 0 0 0 -4.96,7.16a47.05,47.05 0 0 0 -3.52,8.05a7.94,7.94 0 0 0 0.42,5.1c0.65,1.35 1.55,3.13 4.43,2.37s4.85,-4.51 4.85,-4.51s1.92,-4.52 1.96,-6.11a47.91,47.91 0 0 0 0.18,-5.23c-0.11,-2.5 -0.7,-6.75 -0.7,-6.75a2.31,2.31 0 0 1 0.73,-2.17c1.07,-1.21 3.93,-5.12 5.09,-5.9s1.05,-1.31 0.92,-1.74l0,-0.01zm-9.49,27.27c-2.07,3.15 -4.31,5.21 -6.48,1.71s2.12,-10.36 4.71,-14.5s2.98,-3.77 2.98,-3.77c0.39,0 0.36,0.1 0.81,3.96s0.04,9.45 -2.03,12.59l0.01,0.01z" id="svg_9"/>
  </g>
 </g>
</svg>